<?xml version="1.0" encoding="utf-8"?>
<svg version="1.0" xmlns="http://www.w3.org/2000/svg" width="1280.000000pt" height="1013.000000pt" viewBox="0 0 1280.000000 1013.000000" preserveAspectRatio="xMidYMid meet" xmlns:bx="https://boxy-svg.com"><defs><bx:export><bx:file format="svg" href="#object-0" units="pt"/><bx:file format="svg" path="Untitled 2.svg" units="pt"/></bx:export></defs><g transform="translate(0.000000,1013.000000) scale(0.100000,-0.100000)" fill="#000000" stroke="none"><path d="M10391 8899 c-24 -5 -90 -31 -146 -59 -205 -100 -424 -155 -610 -154 -144 0 -204 16 -317 81 -66 39 -86 46 -131 46 -29 0 -63 -5 -74 -12 -12 -6 -43 -11 -70 -11 -33 0 -64 -8 -97 -26 l-48 -26 -102 43 c-92 39 -109 43 -187 44 -79 0 -88 -2 -122 -28 -48 -36 -66 -73 -76 -153 -8 -67 -19 -84 -55 -84 -11 0 -49 -18 -85 -40 -103 -62 -140 -72 -269 -70 -92 0 -121 -3 -155 -19 -49 -22 -409 -335 -446 -387 -23 -32 -26 -49 -32 -157 -4 -80 -12 -135 -23 -160 -28 -64 -94 -127 -171 -163 -121 -56 -173 -107 -199 -196 -3 -10 -21 -19 -48 -23 -90 -15 -145 -75 -136 -151 3 -21 8 -47 12 -56 13 -30 -38 -53 -109 -50 -55 2 -66 -1 -102 -27 -23 -17 -68 -65 -101 -109 -85 -111 -107 -119 -327 -125 -204 -6 -253 -21 -425 -132 -186 -119 -320 -149 -490 -109 -89 21 -175 20 -258 -1 l-69 -18 -128 33 c-169 43 -233 40 -283 -15 -40 -44 -69 -56 -116 -48 -54 9 -80 -3 -104 -46 -12 -21 -29 -42 -38 -45 -9 -3 -59 -6 -112 -6 -94 0 -184 -14 -287 -45 -79 -23 -84 -29 -55 -62 l25 -28 -31 28 -30 27 -24 -25 c-23 -25 -25 -25 -194 -25 -94 0 -200 5 -236 11 -36 5 -92 12 -125 16 -70 7 -84 13 -213 97 -120 79 -181 100 -265 94 -75 -6 -151 -42 -256 -123 -100 -76 -138 -94 -234 -111 -91 -15 -125 -27 -177 -60 -19 -13 -53 -25 -75 -29 -132 -20 -212 -63 -259 -138 -62 -101 -42 -196 59 -283 190 -161 260 -250 395 -504 89 -165 108 -192 157 -215 47 -22 53 -30 53 -80 0 -46 30 -101 63 -116 12 -5 30 -30 41 -55 12 -29 32 -53 59 -72 37 -24 42 -33 45 -69 2 -23 -4 -76 -12 -117 -24 -114 -20 -169 25 -348 73 -292 119 -382 263 -512 48 -43 95 -95 105 -115 10 -20 23 -72 30 -115 16 -114 64 -222 187 -428 121 -203 186 -279 248 -294 33 -8 41 -15 53 -49 17 -49 48 -83 141 -152 141 -105 178 -210 131 -370 -36 -121 -6 -168 124 -197 65 -15 83 -24 113 -54 68 -70 81 -117 92 -333 7 -136 10 -150 35 -187 33 -50 100 -91 181 -109 96 -23 221 -1 338 58 l58 29 41 -27 c29 -19 57 -28 99 -31 103 -8 171 30 265 148 66 83 128 119 263 152 112 28 343 30 508 5 93 -15 118 -15 149 -5 50 17 77 55 83 117 l4 50 166 153 c208 191 229 214 245 263 11 32 24 46 67 70 45 25 88 72 264 285 136 166 273 319 393 439 208 209 221 229 185 301 l-20 42 20 34 c17 29 19 44 14 95 -6 54 -5 64 17 92 76 99 127 245 187 532 54 256 72 309 172 506 56 111 93 198 112 268 35 123 55 155 121 197 127 80 154 125 155 246 0 91 -28 264 -70 424 -16 64 -30 124 -30 134 0 10 16 48 34 83 19 36 42 90 51 121 13 43 25 62 53 83 20 15 78 66 127 113 83 79 103 92 265 172 187 93 254 142 309 225 17 26 60 72 96 102 36 30 96 90 133 134 40 48 95 99 138 127 114 78 245 204 332 320 44 60 48 76 40 140 -3 29 6 34 262 151 85 38 241 116 345 171 198 106 210 110 303 95 70 -11 134 35 148 108 7 38 48 83 59 65 8 -13 43 -4 68 18 9 8 17 29 17 45 l0 31 -32 -30 -33 -29 33 35 c25 29 32 44 32 78 0 29 7 53 22 73 29 39 29 116 -1 183 -14 33 -21 69 -21 110 0 205 -239 354 -489 305z m224 -170 c80 -36 119 -87 109 -145 -4 -28 1 -57 16 -99 34 -94 34 -100 9 -134 -15 -21 -24 -47 -25 -77 -2 -42 -7 -50 -52 -90 -27 -24 -57 -61 -65 -83 -16 -38 -16 -39 -61 -34 -72 9 -127 -11 -325 -117 -102 -55 -251 -129 -331 -165 -270 -122 -306 -142 -359 -201 -60 -65 -79 -117 -62 -165 11 -32 11 -33 -81 -123 -51 -50 -126 -113 -167 -140 -40 -27 -92 -69 -115 -94 -110 -122 -164 -175 -213 -213 -29 -23 -65 -62 -79 -88 -41 -75 -91 -109 -329 -223 -118 -57 -138 -70 -216 -148 -48 -47 -106 -98 -129 -114 -48 -33 -76 -73 -90 -131 -6 -22 -30 -78 -53 -124 -38 -76 -42 -90 -41 -155 0 -44 11 -107 27 -167 48 -174 78 -375 63 -432 -4 -17 -29 -40 -82 -72 -98 -62 -130 -110 -187 -285 -28 -88 -70 -185 -120 -280 -87 -167 -111 -242 -167 -510 -57 -275 -90 -367 -176 -492 -31 -47 -35 -58 -33 -109 2 -49 -1 -61 -24 -89 -34 -39 -36 -98 -7 -146 l21 -33 -148 -148 c-82 -81 -203 -213 -269 -293 -66 -80 -164 -198 -217 -263 -72 -87 -114 -128 -162 -158 -55 -35 -68 -49 -94 -102 -25 -54 -52 -83 -215 -232 -183 -168 -216 -207 -216 -260 0 -26 -2 -27 -37 -22 -21 3 -102 11 -181 18 -344 31 -624 -49 -746 -213 -72 -96 -142 -134 -176 -94 -6 8 -31 23 -56 32 -56 21 -104 14 -205 -32 -122 -54 -201 -63 -270 -28 -49 25 -54 38 -60 193 -8 214 -50 324 -156 408 -42 33 -69 46 -152 69 -9 3 -11 11 -6 27 4 12 9 63 12 112 6 106 -15 184 -74 272 -38 57 -55 73 -156 145 -47 34 -68 56 -72 75 -17 81 -50 114 -128 128 -43 8 -43 8 -157 195 -45 74 -100 155 -123 180 -29 31 -32 36 -9 15 l33 -30 -25 46 c-36 64 -53 118 -71 221 -23 128 -47 169 -178 300 -102 101 -117 121 -144 188 -17 41 -50 151 -74 245 -42 169 -42 169 -29 245 8 41 15 113 17 160 3 73 1 91 -19 130 -13 25 -39 55 -58 68 -22 15 -40 38 -50 65 -9 25 -28 50 -47 62 -27 18 -32 27 -38 80 -3 33 -14 71 -22 86 -18 31 -62 59 -92 59 -24 0 -26 2 -130 194 -137 250 -225 363 -366 471 -82 63 -94 84 -71 120 25 38 54 52 144 69 45 9 96 24 113 33 18 10 42 24 54 30 12 7 66 22 119 32 118 24 155 41 270 127 97 72 157 104 196 104 35 0 96 -30 185 -90 43 -29 100 -63 129 -76 69 -31 268 -53 506 -55 201 -2 236 4 291 57 41 39 152 65 309 71 144 6 171 14 225 63 20 19 45 29 78 34 56 7 113 34 146 70 30 32 46 32 152 1 116 -35 192 -41 261 -21 69 20 144 20 223 1 69 -17 219 -19 285 -4 87 19 180 61 292 131 168 106 184 111 369 114 86 1 176 8 200 14 101 27 172 83 249 193 31 44 36 47 77 47 83 0 133 20 189 74 57 55 79 109 68 165 -6 31 -6 31 35 31 80 0 131 45 131 116 0 50 9 59 119 114 185 92 271 235 271 450 l0 79 196 170 195 169 112 0 c132 0 206 19 309 82 37 22 78 40 91 40 33 0 87 38 110 77 10 18 21 58 24 90 8 84 17 96 63 90 21 -3 84 -23 139 -46 114 -47 166 -52 224 -21 28 15 42 18 57 10 31 -17 67 -11 98 15 17 14 37 25 46 25 9 0 53 -20 99 -45 102 -55 173 -74 307 -81 207 -12 564 76 748 183 78 45 195 50 277 12z"/></g><ellipse style="paint-order: stroke; stroke: rgb(0, 149, 137); stroke-width: 5px; fill: rgb(0, 149, 137);" cx="1015.03" cy="247.657" rx="15.86" ry="15.047"/><ellipse style="fill: rgb(16, 164, 70); stroke: rgb(16, 164, 70);" cx="974.365" cy="276.53" rx="17.486" ry="17.08"/><ellipse style="stroke: rgb(25, 94, 246); fill: rgb(25, 94, 246);" cx="1002.42" cy="132.978" rx="15.453" ry="14.233"/><ellipse style="stroke: rgb(238, 81, 0); fill: rgb(238, 81, 0);" cx="381.45" cy="816.579" rx="13.42" ry="14.64" id="object-0"/></svg>